<svg xmlns="http://www.w3.org/2000/svg" xmlns:xlink="http://www.w3.org/1999/xlink" version="1.1" width="80px" height="55px" viewBox="-0.5 -0.5 80 55" style="background-color: rgb(255, 255, 255);"><defs/><g><rect x="1" y="1" width="78" height="53" fill="none" stroke="none" pointer-events="all"/><path d="M 79 16.38 C 79 24.85 61.61 31.74 39.99 31.74 C 18.39 31.74 1 24.85 1 16.38 C 1 38.64 1 38.64 1 38.64 C 1 47.11 18.39 54 39.99 54 C 61.61 54 79 47.11 79 38.64 Z M 39.99 31.74 C 61.61 31.74 79 24.85 79 16.38 C 79 7.89 61.61 1 39.99 1 C 18.39 1 1 7.89 1 16.38 C 1 24.85 18.39 31.74 39.99 31.74 Z" fill="#036897" stroke="#ffffff" stroke-width="2" stroke-linejoin="round" stroke-miterlimit="10" pointer-events="all"/><path d="M 31.04 10.54 L 34.2 15.31 L 22.08 17.97 L 24.72 15.84 L 6.27 12.66 L 11.01 8.95 L 28.92 12.13 Z M 48.44 22.2 L 45.8 17.43 L 56.86 14.79 L 55.28 16.9 L 73.2 20.08 L 68.99 23.26 L 50.54 20.08 Z M 42.11 7.89 L 54.22 4.71 L 54.76 9.48 L 51.6 8.95 L 45.8 14.25 L 39.99 13.2 L 45.8 8.43 Z M 36.83 26.97 L 25.24 29.1 L 24.72 23.26 L 28.4 24.33 L 34.73 18.49 L 40.53 19.56 L 33.67 25.92 Z" fill="#ffffff" stroke="none" pointer-events="all"/></g></svg>