<?xml version="1.0" encoding="UTF-8"?>
<!DOCTYPE svg PUBLIC "-//W3C//DTD SVG 1.1//EN" "http://www.w3.org/Graphics/SVG/1.1/DTD/svg11.dtd">
<svg xmlns="http://www.w3.org/2000/svg" xmlns:xlink="http://www.w3.org/1999/xlink" version="1.1" width="78px" height="52px" viewBox="-0.5 -0.5 78 52" style="background-color: rgb(255, 255, 255);"><defs/><g><path d="M 0.08 9.72 C 2.92 4.13 18.98 -0.01 37.89 -0.01 C 56.79 -0.01 72.86 4.13 75.69 9.72 L 75.69 41.05 C 72.86 46.64 56.79 50.78 37.89 50.78 C 18.98 50.78 2.92 46.64 0.08 41.05 Z" fill="#9ea5b5" stroke="none" pointer-events="all"/><rect x="0" y="0" width="0" height="0" fill="none" stroke="none" pointer-events="all"/><ellipse cx="37.81" cy="10.46" rx="37.80535125284738" ry="10.342940812963473" fill="#b7bfd1" stroke="none" pointer-events="all"/><path d="M 2.87 38.56 L 3.13 14.69 C 10.92 19.27 29.13 21.68 46.73 20.48 C 64.33 19.28 76.5 14.78 75.87 9.72 L 75.69 34.09 C 75.32 36.74 71.68 39.11 66.14 40.31 C 61.57 41.14 55.72 41.36 50.42 40.89 C 45.12 40.42 41.02 39.32 39.42 37.94 C 37.05 36.46 32.32 35.41 26.73 35.12 C 21.15 34.83 15.42 35.33 11.38 36.48 Z" fill-opacity="0.4" fill="#ffffff" stroke="none" pointer-events="all"/><rect x="0" y="0" width="0" height="0" fill="none" stroke="none" pointer-events="all"/><path d="M 14.73 16.08 L 17.45 12.95 L 19.75 13.78 L 32.72 10.51 L 37.88 11.41 L 23.65 14.9 L 26.58 15.39 Z M 14.73 4.44 L 27.7 8.21 L 24.91 8.9 L 35.64 9.32 L 34.67 6.53 L 31.95 7.23 L 19.61 3.19 Z M 39.27 8.9 L 53.07 5.63 L 50.14 5 L 61.86 4.44 L 58.93 7.65 L 56.14 6.67 L 43.31 10.02 Z M 41.08 11.27 L 52.51 11.97 L 49.73 12.53 L 61.86 15.88 L 57.39 17.13 L 44.85 13.5 L 42.34 14.2 Z" fill="#363333" stroke="none" pointer-events="all"/><path d="M 0.08 9.72 C 2.92 4.13 18.98 -0.01 37.89 -0.01 C 56.79 -0.01 72.86 4.13 75.69 9.72 L 75.69 41.05 C 72.86 46.64 56.79 50.78 37.89 50.78 C 18.98 50.78 2.92 46.64 0.08 41.05 Z" fill="none" stroke="#000000" stroke-miterlimit="10" pointer-events="all"/></g></svg>